<svg xmlns="http://www.w3.org/2000/svg" xmlns:xlink="http://www.w3.org/1999/xlink" x="0px" y="0px"
	 viewBox="0 0 32 32">
<style type="text/css">
	.svg_green{fill:#0F5C47;}
</style>
<path class="svg_green" d="M14,19.6c0.3,0,0.6-0.3,0.6-0.6l0,0v-1.1h1.1c0.8,0,1.5-0.7,1.5-1.5v-0.9c0-0.8-0.7-1.5-1.5-1.5l0,0H14
	c-0.3,0-0.6,0.3-0.6,0.6V19C13.4,19.3,13.7,19.6,14,19.6z M14.6,16.7v-1.3h1.1c0.1,0,0.2,0.1,0.2,0.2v0.9c0,0.1-0.1,0.2-0.2,0.2
	H14.6z"/>
<g transform="translate(-136 -152)">
	<path class="svg_green" d="M141.4,177c-1.8,0-3.2-1.4-3.2-3.2c0-1.1,0.6-2.2,1.6-2.8l19.8-11.5c1.5-0.9,3.5-0.4,4.4,1.2
		c0.9,1.5,0.4,3.5-1.2,4.4L143,176.5C142.5,176.8,141.9,177,141.4,177z"/>
	<path class="svg_green" d="M151.3,182.7c-1.8,0-3.2-1.4-3.2-3.2c0-1.1,0.6-2.2,1.6-2.8l9.9-5.8c1.5-0.9,3.5-0.4,4.4,1.2
		c0.9,1.5,0.4,3.5-1.2,4.4l-9.9,5.8C152.4,182.5,151.9,182.7,151.3,182.7z"/>
	<path class="svg_green" d="M141.3,165.5c-1.8,0-3.2-1.4-3.2-3.2c0-1.1,0.6-2.2,1.6-2.8l9.9-5.8c1.5-0.9,3.5-0.4,4.4,1.2
		c0.9,1.5,0.4,3.5-1.2,4.3l-9.9,5.8C142.4,165.3,141.9,165.5,141.3,165.5z"/>
</g>
</svg>
