<svg id="Layer_1" data-name="Layer 1" xmlns="http://www.w3.org/2000/svg" viewBox="0 0 21 29"><defs><style>.cls-1{fill:#32373c;}</style></defs><path class="cls-1" d="M20.38.05H.62A.61.61,0,0,0,0,.66V28.34A.61.61,0,0,0,.62,29H13.46a.62.62,0,1,0,0-1.23H11.12V24.38a.62.62,0,0,0-1.24,0v3.34H1.24V15.12h6.6a.62.62,0,0,0,0-1.24H1.24V1.28H9.88V5.61a.62.62,0,0,0,1.24,0V1.28h8.64v12.6h-6.3a.62.62,0,0,0,0,1.24h6.3v12.6h-.37a.62.62,0,0,0,0,1.23h1a.61.61,0,0,0,.62-.61V.66A.61.61,0,0,0,20.38.05Z"/><path class="cls-1" d="M13.28,24.57a.62.62,0,0,0,.87,0l2.72-2.71,0-.06a.45.45,0,0,0,.1-.14.52.52,0,0,0,0-.21v0s0,0,0,0a.52.52,0,0,0,0-.21.65.65,0,0,0-.1-.15l0-.05-2.72-2.72a.62.62,0,0,0-.88.88l1.67,1.66H6.76L15.94,7.94A.59.59,0,0,0,16,7.3.62.62,0,0,0,15.44,7H5.56a.62.62,0,0,0,0,1.24h8.68L5.06,21.06a.59.59,0,0,0,0,.64.62.62,0,0,0,.55.34h9.38L13.28,23.7A.62.62,0,0,0,13.28,24.57Z"/><path class="cls-1" d="M17.42,27.72h-2a.62.62,0,1,0,0,1.23h2a.62.62,0,1,0,0-1.23Z"/></svg>