<svg id="Layer_1" data-name="Layer 1" xmlns="http://www.w3.org/2000/svg" viewBox="0 0 32 32"><defs><style>.cls-1{fill:#068d94;}</style></defs><path class="cls-1" d="M18,10.4H13.84a1.44,1.44,0,0,0,0,2.88H18a1.44,1.44,0,1,0,0-2.88Zm.23,1.44a.23.23,0,0,1-.23.23H13.84a.23.23,0,0,1,0-.46H18A.23.23,0,0,1,18.23,11.84Z"/><path class="cls-1" d="M22.57,9.14h1.67a.61.61,0,0,0,0-1.21H22.57a.61.61,0,0,0,0,1.21Z"/><path class="cls-1" d="M31.32,16.82l-4-4V9.34a2.27,2.27,0,0,0-.91-1.81L24.21,5.87a2.21,2.21,0,0,0-1.36-.46H9a2.23,2.23,0,0,0-1.36.46L5.41,7.53A2.27,2.27,0,0,0,4.5,9.34V25.15a1.44,1.44,0,0,0,1.44,1.44h20a1.45,1.45,0,0,0,1.44-1.44V21.66l4-4a.6.6,0,0,0,.18-.43A.58.58,0,0,0,31.32,16.82ZM6.88,7.93l1.47-1.1A1,1,0,0,1,9,6.62h6.34V7.93Zm14.63.61a.6.6,0,0,0-.6-.61H16.52V6.62h6.33a1,1,0,0,1,.64.21L25.71,8.5a1.05,1.05,0,0,1,.42.84V12.1a.72.72,0,0,0-.24.14l-1.66,1.67a.57.57,0,0,0-.18.43.6.6,0,0,0,.18.43l.63.63H17.58a.6.6,0,0,0-.6.6v2.5a.6.6,0,0,0,.6.6h7.28l-.63.63a.6.6,0,0,0,0,.86l1.66,1.66a.61.61,0,0,0,.24.15v2.75a.23.23,0,0,1-.23.23h-20a.23.23,0,0,1-.23-.23V9.34a1.5,1.5,0,0,1,0-.2H20.91A.6.6,0,0,0,21.51,8.54Zm5.24,10.38a.61.61,0,0,0-.43-1H18.19V16.6h8.13a.57.57,0,0,0,.55-.37.6.6,0,0,0-.12-.66l-1.24-1.23.81-.82L30,17.25,26.32,21l-.81-.81Z"/></svg>