<svg id="Layer_1" data-name="Layer 1" xmlns="http://www.w3.org/2000/svg" viewBox="0 0 32 32"><defs><style>.cls-1{fill:#068d94;}</style></defs><path class="cls-1" d="M28.08,11.55H24.86V5.35a1.47,1.47,0,0,0-1.47-1.47H10.89a2.32,2.32,0,0,0-1.65.68L5.56,8.24a2.32,2.32,0,0,0-.68,1.65V26.65a1.47,1.47,0,0,0,1.47,1.47h17a1.47,1.47,0,0,0,1.47-1.47V22.16h3.22a1,1,0,0,0,1-1.05V12.59A1,1,0,0,0,28.08,11.55Zm-.19,1.23v8.14H10.38V12.78Zm-4.27-1.23H10.18a1,1,0,0,0-1,1v8.52a1,1,0,0,0,1,1.05H23.62v4.49a.23.23,0,0,1-.23.24h-17a.24.24,0,0,1-.24-.24V10.23H9.76a1.47,1.47,0,0,0,1.47-1.47V5.11H23.39a.23.23,0,0,1,.23.24ZM6.56,9,10,5.56v3.2A.24.24,0,0,1,9.76,9Z"/><path class="cls-1" d="M22.54,19.6a.62.62,0,0,0,.62-.62V17.9h1.08a.62.62,0,1,0,0-1.24H23.16V15.34h1.51a.62.62,0,1,0,0-1.24H22.54a.62.62,0,0,0-.62.62V19A.62.62,0,0,0,22.54,19.6Z"/><path class="cls-1" d="M14,19.6a.62.62,0,0,0,.62-.62V17.9h1.08a1.47,1.47,0,0,0,1.47-1.47v-.86a1.47,1.47,0,0,0-1.47-1.47H14a.62.62,0,0,0-.62.62V19A.62.62,0,0,0,14,19.6Zm.62-2.94V15.34h1.08a.23.23,0,0,1,.23.23v.86a.23.23,0,0,1-.23.23Z"/><path class="cls-1" d="M18.28,19.6h1.28a1.9,1.9,0,0,0,1.89-1.9V16a1.9,1.9,0,0,0-1.89-1.9H18.28a.62.62,0,0,0-.62.62V19A.62.62,0,0,0,18.28,19.6Zm.62-1.24v-3h.66a.67.67,0,0,1,.66.66v1.7a.66.66,0,0,1-.66.66Z"/></svg>